<svg xmlns="http://www.w3.org/2000/svg" style="display:none">
  <symbol id="icon-bold" viewBox="0 0 24 24"><path d="M7 4h6a4 4 0 0 1 0 8H7zm0 8h7a4 4 0 1 1 0 8H7z" /></symbol>
  <symbol id="icon-italic" viewBox="0 0 24 24"><path d="M14 4h-7v2h3.38l-3.76 12H4v2h7v-2H7.62l3.76-12H17V4z" /></symbol>
  <symbol id="icon-underline" viewBox="0 0 24 24"><path d="M6 4h2v7a4 4 0 0 0 8 0V4h2v7a6 6 0 0 1-12 0zm-2 15v2h16v-2z" /></symbol>
  <symbol id="icon-strike" viewBox="0 0 24 24"><path d="M4 11h16v2H4zm6.5 4h2.37A3.13 3.13 0 0 1 16 18.2C16 20 14.16 21 12 21s-4-.83-4-2.8h2.2c0 .63.96.8 1.8.8s1.8-.23 1.8-.8-.76-.82-1.9-1.2a8.9 8.9 0 0 1-2.4-1zM12 3c2.5 0 4 1.12 4 3.05 0 1.61-1.26 2.54-3.33 3h-2.3c-2.17-.52-3.37-1.43-3.37-3.05C7 4.12 9.02 3 12 3z" /></symbol>
  <symbol id="icon-code" viewBox="0 0 24 24"><path d="m9.4 16.6-4-4 4-4L8 7.2 3.2 12 8 16.8zM15.6 7.4l4 4-4 4 1.4 1.4 4.8-4.8L17 6z" /></symbol>
  <symbol id="icon-align-left" viewBox="0 0 24 24"><path d="M4 5h16v2H4zm0 4h10v2H4zm0 4h16v2H4zm0 4h10v2H4z" /></symbol>
  <symbol id="icon-align-center" viewBox="0 0 24 24"><path d="M4 5h16v2H4zm3 4h10v2H7zm-3 4h16v2H4zm3 4h10v2H7z" /></symbol>
  <symbol id="icon-align-right" viewBox="0 0 24 24"><path d="M4 5h16v2H4zm6 4h10v2H10zM4 13h16v2H4zm6 4h10v2H10z" /></symbol>
  <symbol id="icon-bullet-list" viewBox="0 0 24 24"><path d="M4 6h2v2H4zm4 0h12v2H8zM4 11h2v2H4zm4 0h12v2H8zM4 16h2v2H4zm4 0h12v2H8z" /></symbol>
  <symbol id="icon-ordered-list" viewBox="0 0 24 24"><path d="M4 6h3V4H4v-.5h3.5V2H3v4h2v2H3v2h4V6zm7 0h9v2h-9zm-7 7h3v-2H4v-.5h3.5V9H3v4h2v2H3v2h4v-4zm7 1h9v2h-9zm0 5h9v2h-9zm-7-.5h1.5V20H4v-1h2v-1H4v-1h3v4H3z" /></symbol>
  <symbol id="icon-task-list" viewBox="0 0 24 24"><path d="M5 5h14v2H5zm0 4h6v2H5zm0 4h6v2H5zm0 4h14v2H5zm12-8.17-2.41-2.41 1.41-1.41L17 9.17l3.59-3.58L22 7l-5 5z" /></symbol>
  <symbol id="icon-quote" viewBox="0 0 24 24"><path d="M7 17H4v-6h4V7H5V5h4v6H7zm10 0h-3v-6h4V7h-3V5h4v6h-2z" /></symbol>
  <symbol id="icon-hr" viewBox="0 0 24 24"><path d="M4 11h16v2H4z" /></symbol>
  <symbol id="icon-link" viewBox="0 0 24 24"><path d="M10.59 13.41 9.17 12l-3.58 3.59a3 3 0 1 0 4.24 4.24l3-3-1.41-1.41-3 3a1 1 0 1 1-1.42-1.42zm9.42-8.82a3 3 0 0 0-4.24 0l-3 3 1.41 1.41 3-3a1 1 0 1 1 1.42 1.42L15.6 9.59 17 11l3.01-3.01a3 3 0 0 0 0-4.24z" /></symbol>
  <symbol id="icon-unlink" viewBox="0 0 24 24"><path d="M7.05 14.95 4.91 17.1a3 3 0 0 0 4.24 4.24l2.12-2.12-1.41-1.41-2.12 2.12a1 1 0 0 1-1.42-1.42l2.14-2.14zm9.9-5.9 2.14-2.14a3 3 0 0 0-4.24-4.24L12.73 4.8l1.41 1.41 2.12-2.12a1 1 0 1 1 1.42 1.42l-2.14 2.14zM8.46 7.04 7.05 5.63 5.63 7.05l1.41 1.41zm9.9 9.9 1.41 1.41 1.41-1.41-1.41-1.41zM9.88 8.46l-1.41-1.41-1.41 1.41 1.41 1.41zm4.24 7.07-1.41-1.41-1.41 1.41 1.41 1.41z" /></symbol>
  <symbol id="icon-image" viewBox="0 0 24 24"><path d="M5 5h14a2 2 0 0 1 2 2v10a2 2 0 0 1-2 2H5a2 2 0 0 1-2-2V7a2 2 0 0 1 2-2zm0 2v10h14V7zm2 2a2 2 0 1 1 0 4 2 2 0 0 1 0-4zm2 8 3-4 2 3 3-4 2 5z" /></symbol>
  <symbol id="icon-table" viewBox="0 0 24 24"><path d="M4 5h16a1 1 0 0 1 1 1v12a1 1 0 0 1-1 1H4a1 1 0 0 1-1-1V6a1 1 0 0 1 1-1zm1 2v3h6V7zm8 0v3h7V7zm7 5h-7v3h7zm-9 0H5v3h6zm-6 5h6v3H5zm8 0h7v3h-7z" /></symbol>
  <symbol id="icon-column-before" viewBox="0 0 24 24"><path d="M5 5h3v14H5zm5 0h11v3H10zm0 5h11v4H10zm0 6h11v3H10z" /></symbol>
  <symbol id="icon-column-after" viewBox="0 0 24 24"><path d="M16 5h3v14h-3zM3 5h11v3H3zm0 5h11v4H3zm0 6h11v3H3z" /></symbol>
  <symbol id="icon-column-delete" viewBox="0 0 24 24"><path d="M5 5h3v14H5zm6 0h3v14h-3zm4.59 3.41L18.17 11l-2.58 2.59L17 15l4-4-4-4z" /></symbol>
  <symbol id="icon-row-before" viewBox="0 0 24 24"><path d="M5 5h14v3H5zm0 5h3v9H5zm5 0h4v9h-4zm6 0h3v9h-3z" /></symbol>
  <symbol id="icon-row-after" viewBox="0 0 24 24"><path d="M5 16h14v3H5zm0-11h3v9H5zm5 0h4v9h-4zm6 0h3v9h-3z" /></symbol>
  <symbol id="icon-row-delete" viewBox="0 0 24 24"><path d="M5 5h14v3H5zm0 11h14v3H5zm3.41-6.59L11 12.17l2.59-2.76L15 11l-4 4-4-4z" /></symbol>
  <symbol id="icon-table-delete" viewBox="0 0 24 24"><path d="M5 5h14a1 1 0 0 1 1 1v12a1 1 0 0 1-1 1h-4l2 2-1.41 1.41L12 18.83l-3.59 3.58L7 19l2-2H5a1 1 0 0 1-1-1V6a1 1 0 0 1 1-1zm1 2v10h12V7z" /></symbol>
  <symbol id="icon-undo" viewBox="0 0 24 24"><path d="M12 5a7 7 0 1 1-4.95 11.95l1.41-1.41A5 5 0 1 0 12 7h-1.59l1.3 1.29L10.3 9.7 7 6.41 10.29 3l1.42 1.41L10.41 5z" /></symbol>
  <symbol id="icon-redo" viewBox="0 0 24 24"><path d="M12 5a7 7 0 1 0 4.95 11.95l-1.41-1.41A5 5 0 1 1 12 7h1.59l-1.3 1.29L13.7 9.7 17 6.41 13.71 3l-1.42 1.41L13.59 5z" /></symbol>
</svg>
